<?xml version="1.0" encoding="utf-8"?>
<!-- Generator: Adobe Illustrator 20.1.0, SVG Export Plug-In . SVG Version: 6.00 Build 0)  -->
<svg version="1.1" id="Layer_1" xmlns="http://www.w3.org/2000/svg" xmlns:xlink="http://www.w3.org/1999/xlink" x="0px" y="0px"
	 width="64px" height="64px" viewBox="0 0 64 64" enable-background="new 0 0 64 64" xml:space="preserve">
<g>
	<rect fill="none" width="64" height="64"/>
	<g>
		<path fill="#B3B3B3" d="M10.667,24V9.333C10.667,8.597,11.264,8,12,8h5.333c0.736,0,1.333,0.597,1.333,1.333v8.121L10.667,24z"/>
		<path fill="#E6E6E6" d="M32,4L9.333,24.148v34.518c0,1.473,1.194,2.667,2.667,2.667h40c1.473,0,2.667-1.194,2.667-2.667V24.148
			L32,4z"/>
		<path fill="#444444" d="M61.333,31.999c-0.32,0-0.641-0.115-0.896-0.346L32,5.801L3.564,31.653
			c-0.546,0.495-1.389,0.453-1.883-0.09c-0.495-0.546-0.456-1.388,0.089-1.884L31.103,3.012c0.509-0.461,1.285-0.461,1.794,0
			L62.23,29.679c0.545,0.496,0.585,1.339,0.089,1.884C62.057,31.852,61.695,31.999,61.333,31.999z"/>
		<path fill="#B3B3B3" d="M37.333,44H26.667c-0.736,0-1.333,0.597-1.333,1.333v16h13.333v-16C38.667,44.597,38.07,44,37.333,44z"/>
		<path fill="#B3B3B3" d="M37.333,36H26.667c-0.736,0-1.333-0.597-1.333-1.333v-8c0-0.736,0.597-1.333,1.333-1.333h10.667
			c0.736,0,1.333,0.597,1.333,1.333v8C38.667,35.403,38.07,36,37.333,36z"/>
		<path fill="#72C472" d="M19.085,61.333c0.58-1.213,0.915-2.566,0.915-4C20,52.179,15.821,48,10.667,48
			c-5.155,0-9.333,4.179-9.333,9.333c0,1.434,0.335,2.787,0.915,4H19.085z"/>
		<path fill="#72C472" d="M61.752,61.333c0.58-1.213,0.915-2.566,0.915-4c0-5.155-4.179-9.333-9.333-9.333
			C48.179,48,44,52.179,44,57.333c0,1.434,0.335,2.787,0.915,4H61.752z"/>
	</g>
</g>
</svg>
