<?xml version="1.0" encoding="utf-8"?>
<!-- Generator: Adobe Illustrator 20.1.0, SVG Export Plug-In . SVG Version: 6.00 Build 0)  -->
<svg version="1.1" id="Layer_1" xmlns="http://www.w3.org/2000/svg" xmlns:xlink="http://www.w3.org/1999/xlink" x="0px" y="0px"
	 width="64px" height="64px" viewBox="0 0 64 64" enable-background="new 0 0 64 64" xml:space="preserve">
<g>
	<rect fill="none" width="64" height="64"/>
	<g>
		<path fill="#444444" d="M32,9.333c-0.737,0-1.333-0.596-1.333-1.333V2.667c0-0.737,0.596-1.333,1.333-1.333
			c0.737,0,1.333,0.596,1.333,1.333V8C33.333,8.737,32.737,9.333,32,9.333z"/>
		<path fill="#E6E6E6" d="M42.667,14.667h-4V8c0-0.737-0.596-1.333-1.333-1.333H26.667c-0.737,0-1.333,0.596-1.333,1.333v6.667h-4
			C20.596,14.667,20,15.263,20,16v45.333c0,0.737,0.596,1.333,1.333,1.333h21.333c0.737,0,1.333-0.596,1.333-1.333V16
			C44,15.263,43.404,14.667,42.667,14.667z"/>
		<path fill="#B3B3B3" d="M26.667,36H5.333C4.596,36,4,36.596,4,37.333v24c0,0.737,0.596,1.333,1.333,1.333h21.333
			c0.737,0,1.333-0.596,1.333-1.333v-24C28,36.596,27.404,36,26.667,36z"/>
		<path fill="#444444" d="M58.667,28H37.333C36.596,28,36,28.596,36,29.333v32c0,0.737,0.596,1.333,1.333,1.333h21.333
			c0.737,0,1.333-0.596,1.333-1.333v-32C60,28.596,59.404,28,58.667,28z"/>
		<path fill="#B3B3B3" d="M49.333,53.333h-2.667c-0.736,0-1.333,0.597-1.333,1.333v8h5.333v-8
			C50.667,53.93,50.07,53.333,49.333,53.333z"/>
		<path fill="#E6E6E6" d="M17.333,54.667h-2.667c-0.736,0-1.333,0.597-1.333,1.333v6.667h5.333V56
			C18.667,55.264,18.07,54.667,17.333,54.667z"/>
		<path fill="#BADEFC" d="M45.333,38.667h-2.667c-0.736,0-1.333-0.597-1.333-1.333v-2.667c0-0.736,0.597-1.333,1.333-1.333h2.667
			c0.736,0,1.333,0.597,1.333,1.333v2.667C46.667,38.07,46.07,38.667,45.333,38.667z"/>
		<path fill="#BADEFC" d="M53.333,38.667h-2.667c-0.736,0-1.333-0.597-1.333-1.333v-2.667c0-0.736,0.597-1.333,1.333-1.333h2.667
			c0.736,0,1.333,0.597,1.333,1.333v2.667C54.667,38.07,54.07,38.667,53.333,38.667z"/>
		<path fill="#BADEFC" d="M45.333,46.667h-2.667c-0.736,0-1.333-0.597-1.333-1.333v-2.667c0-0.736,0.597-1.333,1.333-1.333h2.667
			c0.736,0,1.333,0.597,1.333,1.333v2.667C46.667,46.07,46.07,46.667,45.333,46.667z"/>
		<path fill="#BADEFC" d="M53.333,46.667h-2.667c-0.736,0-1.333-0.597-1.333-1.333v-2.667c0-0.736,0.597-1.333,1.333-1.333h2.667
			c0.736,0,1.333,0.597,1.333,1.333v2.667C54.667,46.07,54.07,46.667,53.333,46.667z"/>
		<path fill="#FFFFFF" d="M13.333,48h-2.667c-0.736,0-1.333-0.597-1.333-1.333V44c0-0.736,0.597-1.333,1.333-1.333h2.667
			c0.736,0,1.333,0.597,1.333,1.333v2.667C14.667,47.403,14.07,48,13.333,48z"/>
		<path fill="#FFFFFF" d="M21.333,48h-2.667c-0.736,0-1.333-0.597-1.333-1.333V44c0-0.736,0.597-1.333,1.333-1.333h2.667
			c0.736,0,1.333,0.597,1.333,1.333v2.667C22.667,47.403,22.07,48,21.333,48z"/>
	</g>
</g>
</svg>
