<?xml version="1.0" encoding="utf-8"?>
<!-- Generator: Adobe Illustrator 20.1.0, SVG Export Plug-In . SVG Version: 6.00 Build 0)  -->
<svg version="1.1" id="Layer_1" xmlns="http://www.w3.org/2000/svg" xmlns:xlink="http://www.w3.org/1999/xlink" x="0px" y="0px"
	 width="64px" height="64px" viewBox="0 0 64 64" enable-background="new 0 0 64 64" xml:space="preserve">
<g>
	<rect fill="none" width="64" height="64"/>
	<g>
		<path fill="#72C472" d="M37.333,33.333H26.667c-0.736,0-1.333,0.597-1.333,1.333v24c0,0.736,0.597,1.333,1.333,1.333h10.667
			c0.736,0,1.333-0.597,1.333-1.333v-24C38.667,33.93,38.07,33.333,37.333,33.333z"/>
		<path fill="#9EDB9E" d="M16,44H5.333C4.597,44,4,44.597,4,45.333v13.333C4,59.403,4.597,60,5.333,60H16
			c0.736,0,1.333-0.597,1.333-1.333V45.333C17.333,44.597,16.736,44,16,44z"/>
		<path fill="#4DA34D" d="M58.667,22.667H48c-0.736,0-1.333,0.597-1.333,1.333v34.667C46.667,59.403,47.264,60,48,60h10.667
			C59.403,60,60,59.403,60,58.667V24C60,23.264,59.403,22.667,58.667,22.667z"/>
		<path fill="#B3B3B3" d="M32.943,24.943L49.333,8.552V16c0,0.736,0.597,1.333,1.333,1.333C51.403,17.333,52,16.736,52,16V5.333
			c0-0.174-0.035-0.347-0.103-0.51c-0.135-0.326-0.395-0.586-0.721-0.721C51.013,4.035,50.84,4,50.667,4H40
			c-0.736,0-1.333,0.597-1.333,1.333S39.264,6.667,40,6.667h7.448L32,22.115l-7.057-7.057c-0.521-0.521-1.365-0.521-1.885,0
			L12.391,25.724c-0.521,0.521-0.521,1.365,0,1.885C12.651,27.87,12.992,28,13.333,28c0.341,0,0.682-0.13,0.943-0.391L24,17.885
			l7.057,7.057C31.578,25.464,32.422,25.464,32.943,24.943z"/>
	</g>
</g>
</svg>
