<?xml version="1.0" encoding="utf-8"?>
<!-- Generator: Adobe Illustrator 16.0.0, SVG Export Plug-In . SVG Version: 6.00 Build 0)  -->
<!DOCTYPE svg PUBLIC "-//W3C//DTD SVG 1.1//EN" "http://www.w3.org/Graphics/SVG/1.1/DTD/svg11.dtd">
<svg version="1.1" id="Layer_1" xmlns="http://www.w3.org/2000/svg" xmlns:xlink="http://www.w3.org/1999/xlink" x="0px" y="0px"
	 width="270px" height="281.173px" viewBox="0 0 270 281.173" enable-background="new 0 0 270 281.173" xml:space="preserve">
<g>
	<g>
		<path fill="#004C75" d="M204.216,171.864v-17.625h13.707c3.231,0,5.91,0.164,8.008,0.61c2.102,0.445,3.685,1.312,4.707,2.589
			c1.031,1.287,1.546,3.178,1.546,5.68c0,2.328-0.489,4.13-1.453,5.395c-0.975,1.28-2.444,2.164-4.432,2.655
			c-1.981,0.487-4.5,0.696-7.545,0.696H204.216z M172.647,225.387h31.568v-32.374h13.568c17.605,0,16.148,19.615,15.937,32.374
			h29.184l-0.284-7.379c-0.046-0.664-0.078-1.425-0.114-2.281l-0.554-13.056c-0.18-4.238-0.763-7.787-1.915-10.615
			c-1.154-2.828-2.907-5.073-5.261-6.724c-2.33-1.633-5.332-2.828-9.023-3.547c5.445-2.197,9.502-5.183,12.138-8.986
			c2.625-3.788,3.935-8.528,3.923-14.25c-0.011-5.006-0.808-9.25-2.47-12.707c-1.66-3.46-4.191-6.258-7.591-8.354
			c-3.407-2.102-7.729-3.625-12.947-4.57c-5.233-0.948-11.399-1.392-18.529-1.392h-47.629V225.387z M33.938,225.387
			c0-20.888,0.299-36.546-0.415-57.426c4.313,21.146,10.699,36.607,16.476,57.426H72.29c5.563-20.742,11.745-36.493,16.475-57.426
			c-0.339,20.871-0.289,36.555-0.415,57.426h28.938v-93.861H75.605c-4.85,20.086-10.413,35.142-14.53,55.335
			c-4.909-20.165-9.622-35.139-14.393-55.335H5v93.861H33.938z"/>
		<path fill="#004C75" d="M108.52,277.173c20.528-2.035,52.678-24.561,52.678-57.713v-87.935h-31.984
			c0,27.818-0.025,68.647-0.037,99.64C129.173,242.433,130.108,259.976,108.52,277.173"/>
		<g>
			<g>
				<defs>
					<rect id="SVGID_1_" x="133.202" y="37.432" width="60.839" height="82.729"/>
				</defs>
				<clipPath id="SVGID_2_">
					<use xlink:href="#SVGID_1_"  overflow="visible"/>
				</clipPath>
				<path clip-path="url(#SVGID_2_)" fill-rule="evenodd" clip-rule="evenodd" fill="#A5CD39" d="M186.495,38.712
					c11.075,5.619,9.812,28.12-2.82,50.257c-12.633,22.137-31.852,35.528-42.928,29.91c-11.074-5.618-9.811-28.119,2.821-50.256
					C156.2,46.486,175.421,33.094,186.495,38.712"/>
			</g>
		</g>
		<defs>
			<filter id="Adobe_OpacityMaskFilter" filterUnits="userSpaceOnUse" x="111.772" y="8.596" width="57.553" height="111.303">
				<feColorMatrix  type="matrix" values="1 0 0 0 0  0 1 0 0 0  0 0 1 0 0  0 0 0 1 0"/>
			</filter>
		</defs>
		<mask maskUnits="userSpaceOnUse" x="111.772" y="8.596" width="57.553" height="111.303" id="SVGID_3_">
			<g filter="url(#Adobe_OpacityMaskFilter)">
				<g>
					<defs>
						<rect id="SVGID_4_" x="111.772" y="8.596" width="57.552" height="111.303"/>
					</defs>
					<clipPath id="SVGID_5_">
						<use xlink:href="#SVGID_4_"  overflow="visible"/>
					</clipPath>
					<rect x="108.651" y="6.871" clip-path="url(#SVGID_5_)" width="63.797" height="114.755"/>
					<g enable-background="new    ">
						<g>
							<defs>
								<rect id="SVGID_6_" x="108.651" y="6.871" width="63.795" height="114.754"/>
							</defs>
							<clipPath id="SVGID_7_" clip-path="url(#SVGID_5_)">
								<use xlink:href="#SVGID_6_"  overflow="visible"/>
							</clipPath>
							<g>
								<defs>
									<rect id="SVGID_8_" x="82.221" y="-1.798" width="87.104" height="121.697"/>
								</defs>
								<clipPath id="SVGID_9_" clip-path="url(#SVGID_7_)">
									<use xlink:href="#SVGID_8_"  overflow="visible"/>
								</clipPath>
								<polygon clip-path="url(#SVGID_9_)" fill="#FFFFFF" points="207.446,80.483 216.077,99.113 97.105,152.026 88.474,133.398 
																	"/>
								<polygon clip-path="url(#SVGID_9_)" points="163.072,-15.296 154.44,-33.925 35.469,18.989 44.1,37.618 								"/>
							</g>
							<g>
								<defs>
									<polygon id="SVGID_10_" points="100.258,-1.798 82.222,6.224 82.222,119.9 151.288,119.9 169.325,111.877 169.325,-1.797 
										169.324,-1.798 									"/>
								</defs>
								<clipPath id="SVGID_11_" clip-path="url(#SVGID_7_)">
									<use xlink:href="#SVGID_10_"  overflow="visible"/>
								</clipPath>
								<g>
									<defs>
										<polygon id="SVGID_12_" points="212.993,92.456 157.524,-27.269 38.553,25.646 94.021,145.37 										"/>
									</defs>
									<clipPath id="SVGID_13_" clip-path="url(#SVGID_11_)">
										<use xlink:href="#SVGID_12_"  overflow="visible"/>
									</clipPath>
									<g clip-path="url(#SVGID_13_)">
										
											<image overflow="visible" width="256" height="1" xlink:href="202B841D.jpg"  transform="matrix(-0.2167 -0.4677 118.9715 -52.914 94.0215 145.3701)">
										</image>
									</g>
								</g>
							</g>
						</g>
					</g>
				</g>
			</g>
		</mask>
		<g mask="url(#SVGID_3_)">
			<g>
				<defs>
					<rect id="SVGID_14_" x="111.772" y="8.596" width="57.552" height="111.303"/>
				</defs>
				<clipPath id="SVGID_15_">
					<use xlink:href="#SVGID_14_"  overflow="visible"/>
				</clipPath>
				<path clip-path="url(#SVGID_15_)" fill-rule="evenodd" clip-rule="evenodd" fill="#1D93D1" d="M133.112,8.696
					c15.349-1.826,31.121,21.564,35.229,52.244c4.105,30.681-5.007,57.033-20.355,58.859c-15.35,1.826-31.121-21.564-35.227-52.244
					C108.651,36.875,117.765,10.523,133.112,8.696"/>
			</g>
		</g>
		<defs>
			<filter id="Adobe_OpacityMaskFilter_1_" filterUnits="userSpaceOnUse" x="88.751" y="11.032" width="72.491" height="108.847">
				<feColorMatrix  type="matrix" values="1 0 0 0 0  0 1 0 0 0  0 0 1 0 0  0 0 0 1 0"/>
			</filter>
		</defs>
		<mask maskUnits="userSpaceOnUse" x="88.751" y="11.032" width="72.491" height="108.847" id="SVGID_16_">
			<g filter="url(#Adobe_OpacityMaskFilter_1_)">
				<g>
					<defs>
						<rect id="SVGID_17_" x="88.751" y="11.032" width="72.491" height="108.846"/>
					</defs>
					<clipPath id="SVGID_18_">
						<use xlink:href="#SVGID_17_"  overflow="visible"/>
					</clipPath>
					<rect x="84.772" y="6.121" clip-path="url(#SVGID_18_)" width="80.449" height="118.67"/>
					<g enable-background="new    ">
						<g>
							<defs>
								<rect id="SVGID_19_" x="84.772" y="6.121" width="80.449" height="118.67"/>
							</defs>
							<clipPath id="SVGID_20_" clip-path="url(#SVGID_18_)">
								<use xlink:href="#SVGID_19_"  overflow="visible"/>
							</clipPath>
							<g>
								<defs>
									<rect id="SVGID_21_" x="49.966" y="11.033" width="111.275" height="116.259"/>
								</defs>
								<clipPath id="SVGID_22_" clip-path="url(#SVGID_20_)">
									<use xlink:href="#SVGID_21_"  overflow="visible"/>
								</clipPath>
								<polygon clip-path="url(#SVGID_22_)" fill="#FFFFFF" points="200.061,56.871 219.55,79.886 95.336,180.867 75.845,157.851 
																	"/>
								<polygon clip-path="url(#SVGID_22_)" points="135.363,-19.527 115.873,-42.543 -8.341,58.438 11.148,81.453 								"/>
							</g>
							<g>
								<defs>
									<polygon id="SVGID_23_" points="77.938,11.032 49.967,33.771 49.967,127.292 133.271,127.292 144.268,118.352 
										161.241,104.553 161.241,11.032 									"/>
								</defs>
								<clipPath id="SVGID_24_" clip-path="url(#SVGID_20_)">
									<use xlink:href="#SVGID_23_"  overflow="visible"/>
								</clipPath>
								<g>
									<defs>
										<polygon id="SVGID_25_" points="208.147,66.421 127.276,-29.077 3.062,71.903 83.933,167.401 										"/>
									</defs>
									<clipPath id="SVGID_26_" clip-path="url(#SVGID_24_)">
										<use xlink:href="#SVGID_25_"  overflow="visible"/>
									</clipPath>
									<g transform="matrix(1 -2.980232e-008 0 1 0 0)" clip-path="url(#SVGID_26_)">
										
											<image overflow="visible" width="256" height="1" xlink:href="202B841F.jpg"  transform="matrix(-0.3159 -0.373 124.2142 -100.9803 83.9331 167.4014)">
										</image>
									</g>
								</g>
							</g>
						</g>
					</g>
				</g>
			</g>
		</mask>
		<g mask="url(#SVGID_16_)">
			<g>
				<defs>
					<rect id="SVGID_27_" x="88.751" y="11.032" width="72.491" height="108.846"/>
				</defs>
				<clipPath id="SVGID_28_">
					<use xlink:href="#SVGID_27_"  overflow="visible"/>
				</clipPath>
				<path clip-path="url(#SVGID_28_)" fill-rule="evenodd" clip-rule="evenodd" fill="#0377AE" d="M100.45,12.15
					c14.728-6.029,37.658,12.948,51.214,42.389c13.558,29.44,12.608,58.194-2.121,64.223c-14.728,6.029-37.657-12.949-51.214-42.389
					C84.772,46.932,85.722,18.179,100.45,12.15"/>
			</g>
		</g>
	</g>
</g>
</svg>
