<?xml version="1.0" encoding="utf-8"?>
<!-- Generator: Adobe Illustrator 16.0.0, SVG Export Plug-In . SVG Version: 6.00 Build 0)  -->
<!DOCTYPE svg PUBLIC "-//W3C//DTD SVG 1.1//EN" "http://www.w3.org/Graphics/SVG/1.1/DTD/svg11.dtd">
<svg version="1.1" id="Layer_1" xmlns="http://www.w3.org/2000/svg" xmlns:xlink="http://www.w3.org/1999/xlink" x="0px" y="0px"
	 width="288px" height="75.574px" viewBox="0 0 288 75.574" enable-background="new 0 0 288 75.574" xml:space="preserve">
<polygon points="7.011,5.717 11.958,5.717 29.632,31.53 29.632,5.717 33.949,5.717 33.949,38.547 29.318,38.547 11.328,12.372 
	11.328,38.547 7.011,38.547 "/>
<g>
	<path d="M84.63,5.716h10.524c6.791,0,11.423,4.633,11.423,10.614c0,4.363-2.744,8.14-6.702,9.805l7.196,12.413h-4.902
		l-6.477-11.424h-6.791v11.424H84.63V5.716z M88.903,9.764v13.357h5.756c4.948,0,7.511-3.554,7.511-6.792
		c0-3.912-2.608-6.566-7.466-6.566H88.903z"/>
	<polygon points="118.089,9.809 108.555,9.809 108.555,5.717 131.941,5.717 131.941,9.809 122.407,9.809 122.407,38.547 
		118.089,38.547 	"/>
	<polygon points="156.045,24.155 140.214,24.155 140.214,38.546 135.897,38.546 135.897,5.717 140.214,5.717 140.214,19.973 
		156.045,19.973 156.045,5.717 160.407,5.717 160.407,38.546 156.045,38.546 	"/>
	<path d="M176.102,5.717h10.613c7.015,0,11.917,4.991,11.917,11.423c0,6.476-4.902,11.468-11.962,11.468h-6.251v9.938h-4.317V5.717z
		 M180.419,9.719v14.796h5.98c4.857,0,7.826-3.283,7.826-7.375c0-4.183-2.969-7.421-7.826-7.421H180.419z"/>
	<path d="M209.427,5.717h4.541l12.143,32.829h-4.541l-2.789-7.51H204.57l-2.744,7.51h-4.587L209.427,5.717z M206.098,26.854h11.153
		l-5.577-15.156L206.098,26.854z"/>
	<path d="M229.573,5.716h10.525c6.79,0,11.422,4.633,11.422,10.614c0,4.363-2.743,8.14-6.701,9.805l7.196,12.413h-4.902
		l-6.477-11.424h-6.79v11.424h-4.273V5.716z M233.846,9.764v13.357h5.756c4.947,0,7.511-3.554,7.511-6.792
		c0-3.912-2.607-6.566-7.466-6.566H233.846z"/>
	<polygon points="264.606,21.682 259.21,28.068 259.21,38.547 254.893,38.547 254.893,5.717 259.21,5.717 259.21,22.356 
		273.241,5.717 278.593,5.717 267.665,18.713 279.897,38.547 274.86,38.547 	"/>
	<path fill="#023F88" d="M59.422,43.436c-11.699,0-21.218-9.518-21.218-21.218C38.204,10.518,47.723,1,59.422,1
		c11.7,0,21.219,9.518,21.219,21.217C80.641,33.918,71.122,43.436,59.422,43.436"/>
	<polygon fill="#FFFFFF" points="59.422,26.142 69.002,31.797 63.346,22.218 69.002,12.638 59.422,18.293 49.842,12.638 
		55.499,22.218 49.842,31.797 	"/>
	<polygon fill="#023F88" points="62.326,25.121 73.6,22.218 62.326,19.314 59.422,8.04 56.519,19.314 45.244,22.218 56.519,25.121 
		59.422,36.396 	"/>
	<path fill="#FFFFFF" d="M59.422,39.772l-3.595-13.959l-13.959-3.595l13.959-3.595l3.595-13.959l3.595,13.959l13.959,3.595
		l-13.959,3.595L59.422,39.772z M48.621,22.218l8.589,2.212l2.212,8.589l2.212-8.589l8.588-2.212l-8.588-2.212l-2.212-8.589
		l-2.212,8.589L48.621,22.218z"/>
	<polygon fill="#A6CE39" points="63.499,20.484 59.422,4.663 55.353,20.484 59.41,19.44 	"/>
	<path d="M9.966,64.696h1.05l2.935,6.816h-1.386l-0.636-1.56H8.974l-0.617,1.56H7L9.966,64.696z M11.506,68.913l-1.05-2.772
		l-1.068,2.772H11.506z"/>
	<polygon points="15.675,64.696 20.19,64.696 20.19,65.756 16.888,65.756 16.888,67.488 20.017,67.488 20.017,68.509 16.888,68.509 
		16.888,70.435 20.364,70.435 20.364,71.513 15.675,71.513 	"/>
	<path d="M22.597,64.696h2.368c0.321,0,0.632,0.034,0.934,0.103c0.302,0.066,0.57,0.177,0.804,0.331
		c0.234,0.153,0.422,0.356,0.564,0.606c0.14,0.25,0.211,0.556,0.211,0.914c0,0.495-0.14,0.897-0.418,1.208
		c-0.28,0.312-0.66,0.522-1.141,0.632l1.819,3.022h-1.463l-1.58-2.889h-0.885v2.889h-1.213V64.696z M24.802,67.633
		c0.173,0,0.346-0.013,0.52-0.039c0.173-0.025,0.329-0.073,0.467-0.144c0.138-0.07,0.252-0.173,0.342-0.303
		c0.089-0.132,0.135-0.301,0.135-0.507c0-0.185-0.042-0.338-0.125-0.457c-0.084-0.118-0.19-0.213-0.318-0.283
		c-0.129-0.07-0.274-0.118-0.438-0.145c-0.164-0.026-0.323-0.039-0.478-0.039h-1.097v1.916H24.802z"/>
	<path d="M29.375,68.085c0-0.545,0.092-1.038,0.274-1.478c0.184-0.439,0.437-0.813,0.761-1.121c0.324-0.308,0.709-0.546,1.155-0.712
		c0.446-0.168,0.932-0.252,1.458-0.252c0.534,0,1.024,0.084,1.473,0.252c0.45,0.166,0.838,0.404,1.166,0.712
		c0.327,0.308,0.582,0.682,0.765,1.121c0.184,0.439,0.274,0.933,0.274,1.478c0,0.533-0.091,1.02-0.274,1.459
		c-0.183,0.439-0.438,0.818-0.765,1.136c-0.328,0.318-0.716,0.564-1.166,0.742c-0.449,0.176-0.939,0.264-1.473,0.264
		c-0.526,0-1.013-0.088-1.458-0.264c-0.446-0.178-0.832-0.424-1.155-0.742c-0.324-0.317-0.578-0.696-0.761-1.136
		C29.467,69.104,29.375,68.618,29.375,68.085 M30.694,68.085c0,0.367,0.056,0.701,0.169,1.007c0.111,0.305,0.272,0.568,0.481,0.794
		c0.209,0.226,0.456,0.399,0.741,0.524s0.602,0.188,0.948,0.188c0.347,0,0.664-0.063,0.954-0.188
		c0.289-0.125,0.537-0.299,0.745-0.524c0.209-0.226,0.37-0.489,0.482-0.794c0.112-0.306,0.168-0.64,0.168-1.007
		c0-0.354-0.057-0.681-0.168-0.981c-0.112-0.302-0.272-0.565-0.477-0.789c-0.206-0.225-0.453-0.402-0.743-0.53
		c-0.288-0.129-0.609-0.192-0.962-0.192c-0.353,0-0.672,0.063-0.958,0.192c-0.285,0.128-0.531,0.306-0.736,0.53
		c-0.206,0.224-0.365,0.487-0.476,0.789C30.75,67.404,30.694,67.731,30.694,68.085"/>
	<path d="M42.402,66.121c-0.128-0.167-0.31-0.306-0.544-0.418c-0.234-0.113-0.471-0.17-0.708-0.17c-0.141,0-0.282,0.019-0.424,0.054
		c-0.141,0.035-0.27,0.09-0.385,0.163c-0.116,0.074-0.209,0.171-0.285,0.289c-0.073,0.119-0.11,0.262-0.11,0.429
		c0,0.154,0.032,0.286,0.096,0.395c0.064,0.109,0.153,0.202,0.266,0.279c0.112,0.077,0.249,0.145,0.408,0.202
		c0.16,0.059,0.337,0.115,0.531,0.174c0.217,0.069,0.444,0.15,0.677,0.241c0.235,0.09,0.45,0.207,0.646,0.355
		c0.197,0.146,0.357,0.334,0.482,0.56c0.125,0.223,0.187,0.503,0.187,0.837c0,0.366-0.067,0.685-0.202,0.957
		c-0.135,0.273-0.314,0.5-0.54,0.68c-0.224,0.18-0.487,0.313-0.788,0.404c-0.302,0.09-0.62,0.135-0.954,0.135
		c-0.443,0-0.876-0.082-1.3-0.245c-0.424-0.164-0.77-0.406-1.04-0.728l0.867-0.809c0.167,0.23,0.39,0.413,0.669,0.549
		c0.279,0.134,0.554,0.202,0.823,0.202c0.141,0,0.285-0.017,0.433-0.053c0.148-0.035,0.28-0.095,0.399-0.179
		c0.119-0.083,0.215-0.188,0.289-0.313c0.074-0.126,0.111-0.281,0.111-0.468c0-0.18-0.042-0.328-0.125-0.447
		s-0.197-0.222-0.337-0.309c-0.142-0.086-0.308-0.161-0.5-0.226c-0.194-0.064-0.395-0.133-0.607-0.203
		c-0.206-0.063-0.412-0.14-0.617-0.229c-0.206-0.091-0.39-0.21-0.553-0.355c-0.164-0.148-0.297-0.33-0.399-0.546
		c-0.104-0.215-0.155-0.482-0.155-0.803c0-0.347,0.072-0.646,0.217-0.896c0.144-0.25,0.333-0.458,0.568-0.622
		c0.234-0.163,0.501-0.284,0.799-0.365c0.299-0.081,0.602-0.12,0.91-0.12c0.347,0,0.698,0.06,1.055,0.184
		c0.356,0.121,0.665,0.304,0.929,0.547L42.402,66.121z"/>
	<path d="M45.502,64.696h2.224c0.392,0,0.745,0.035,1.059,0.105c0.315,0.07,0.584,0.187,0.809,0.347
		c0.225,0.16,0.399,0.366,0.521,0.616c0.122,0.251,0.182,0.553,0.182,0.906c0,0.378-0.071,0.695-0.211,0.952
		c-0.142,0.257-0.332,0.465-0.572,0.62c-0.241,0.158-0.522,0.271-0.843,0.343c-0.322,0.071-0.661,0.106-1.021,0.106h-0.934v2.82
		h-1.213V64.696z M47.563,67.672c0.199,0,0.388-0.015,0.568-0.044c0.179-0.028,0.34-0.08,0.481-0.153
		c0.141-0.074,0.254-0.175,0.337-0.305c0.083-0.128,0.125-0.295,0.125-0.499c0-0.199-0.042-0.361-0.125-0.487
		c-0.083-0.126-0.193-0.222-0.332-0.293s-0.295-0.117-0.471-0.141c-0.177-0.021-0.358-0.032-0.544-0.032h-0.886v1.954H47.563z"/>
	<path d="M53.984,64.696h1.05l2.936,6.816h-1.386l-0.636-1.56h-2.956l-0.617,1.56h-1.357L53.984,64.696z M55.524,68.913l-1.05-2.772
		l-1.068,2.772H55.524z"/>
	<path d="M64.44,66.294c-0.179-0.243-0.414-0.421-0.703-0.533c-0.289-0.112-0.571-0.169-0.848-0.169
		c-0.353,0-0.674,0.063-0.962,0.191c-0.29,0.13-0.538,0.307-0.747,0.53c-0.208,0.226-0.369,0.488-0.481,0.79
		c-0.113,0.301-0.168,0.629-0.168,0.982c0,0.372,0.054,0.712,0.163,1.02c0.109,0.309,0.265,0.573,0.467,0.795
		s0.444,0.393,0.727,0.516c0.283,0.121,0.6,0.183,0.953,0.183c0.366,0,0.69-0.072,0.973-0.217c0.282-0.145,0.51-0.336,0.684-0.573
		l0.973,0.685c-0.302,0.378-0.671,0.673-1.108,0.88c-0.437,0.209-0.947,0.313-1.531,0.313c-0.532,0-1.022-0.089-1.468-0.265
		c-0.446-0.177-0.83-0.424-1.15-0.742c-0.321-0.317-0.571-0.695-0.751-1.135c-0.179-0.441-0.27-0.927-0.27-1.459
		c0-0.546,0.095-1.039,0.285-1.479c0.189-0.44,0.449-0.813,0.78-1.121c0.329-0.309,0.721-0.546,1.169-0.713
		c0.449-0.167,0.937-0.25,1.463-0.25c0.218,0,0.446,0.021,0.684,0.062c0.237,0.042,0.465,0.106,0.683,0.193
		c0.219,0.087,0.425,0.194,0.617,0.322s0.356,0.282,0.491,0.463L64.44,66.294z"/>
	<polygon points="67.271,64.696 71.785,64.696 71.785,65.756 68.483,65.756 68.483,67.488 71.613,67.488 71.613,68.509 
		68.483,68.509 68.483,70.435 71.959,70.435 71.959,71.513 67.271,71.513 	"/>
	<path d="M77.649,64.696h2.224c0.392,0,0.745,0.035,1.059,0.105c0.315,0.07,0.585,0.187,0.809,0.347
		c0.225,0.16,0.398,0.366,0.521,0.616c0.122,0.251,0.183,0.553,0.183,0.906c0,0.378-0.072,0.695-0.212,0.952
		c-0.142,0.257-0.333,0.465-0.572,0.62c-0.241,0.158-0.522,0.271-0.843,0.343c-0.321,0.071-0.661,0.106-1.021,0.106h-0.935v2.82
		h-1.213V64.696z M79.709,67.672c0.199,0,0.388-0.015,0.569-0.044c0.179-0.028,0.339-0.08,0.481-0.153
		c0.14-0.074,0.253-0.175,0.337-0.305c0.084-0.128,0.125-0.295,0.125-0.499c0-0.199-0.042-0.361-0.125-0.487
		c-0.083-0.126-0.193-0.222-0.332-0.293s-0.295-0.117-0.472-0.141c-0.177-0.021-0.358-0.032-0.544-0.032h-0.887v1.954H79.709z"/>
	<path d="M86.131,64.696h1.05l2.936,6.816h-1.386l-0.636-1.56h-2.956l-0.617,1.56h-1.357L86.131,64.696z M87.672,68.913l-1.05-2.772
		l-1.069,2.772H87.672z"/>
	<path d="M91.841,64.696h2.368c0.321,0,0.632,0.034,0.934,0.103c0.302,0.066,0.57,0.177,0.804,0.331
		c0.234,0.153,0.422,0.356,0.563,0.606c0.141,0.25,0.212,0.556,0.212,0.914c0,0.495-0.14,0.897-0.418,1.208
		c-0.281,0.312-0.66,0.522-1.141,0.632l1.819,3.022h-1.463l-1.58-2.889h-0.885v2.889h-1.213V64.696z M94.045,67.633
		c0.173,0,0.347-0.013,0.521-0.039c0.172-0.025,0.328-0.073,0.466-0.144c0.138-0.07,0.252-0.173,0.342-0.303
		c0.089-0.132,0.134-0.301,0.134-0.507c0-0.185-0.042-0.338-0.125-0.457c-0.083-0.118-0.19-0.213-0.318-0.283
		c-0.129-0.07-0.274-0.118-0.438-0.145c-0.165-0.026-0.323-0.039-0.478-0.039h-1.097v1.916H94.045z"/>
	<polygon points="98.946,64.696 100.159,64.696 100.159,67.642 100.188,67.642 103.038,64.696 104.675,64.696 101.488,67.844 
		104.886,71.513 103.183,71.513 100.188,68.095 100.159,68.095 100.159,71.513 98.946,71.513 	"/>
	<polygon points="106.784,70.185 107.9,70.185 107.082,72.726 106.108,72.726 	"/>
	<path d="M113.349,64.696h2.657c0.256,0,0.511,0.031,0.761,0.091c0.25,0.063,0.474,0.161,0.669,0.3
		c0.196,0.137,0.354,0.315,0.477,0.533c0.123,0.219,0.183,0.481,0.183,0.79c0,0.385-0.109,0.703-0.328,0.953
		c-0.218,0.251-0.504,0.43-0.856,0.539v0.02c0.43,0.058,0.783,0.225,1.058,0.5c0.276,0.276,0.415,0.646,0.415,1.108
		c0,0.371-0.075,0.685-0.222,0.938c-0.147,0.253-0.342,0.457-0.582,0.61c-0.241,0.154-0.518,0.266-0.829,0.333
		c-0.312,0.066-0.627,0.101-0.948,0.101h-2.456V64.696z M114.562,67.47h1.08c0.403,0,0.711-0.081,0.923-0.241
		c0.212-0.16,0.318-0.389,0.318-0.683c0-0.309-0.109-0.527-0.328-0.655s-0.559-0.193-1.021-0.193h-0.973V67.47z M114.562,70.492
		h1.088c0.155,0,0.32-0.012,0.501-0.033c0.18-0.022,0.345-0.069,0.497-0.141c0.15-0.07,0.275-0.172,0.375-0.308
		c0.1-0.134,0.149-0.314,0.149-0.538c0-0.36-0.122-0.611-0.365-0.751c-0.244-0.142-0.613-0.213-1.108-0.213h-1.136V70.492z"/>
	<path d="M122.765,64.696h1.05l2.936,6.816h-1.386l-0.636-1.56h-2.956l-0.617,1.56h-1.357L122.765,64.696z M124.306,68.913
		l-1.05-2.772l-1.069,2.772H124.306z"/>
	<path d="M134.271,71.156c-0.346,0.167-0.727,0.298-1.142,0.391c-0.413,0.093-0.89,0.14-1.43,0.14c-0.552,0-1.055-0.089-1.512-0.265
		c-0.456-0.178-0.847-0.424-1.174-0.742c-0.328-0.317-0.583-0.695-0.766-1.136c-0.182-0.439-0.274-0.926-0.274-1.458
		c0-0.546,0.095-1.039,0.284-1.479c0.189-0.44,0.449-0.813,0.78-1.121c0.33-0.309,0.72-0.546,1.17-0.713
		c0.449-0.167,0.937-0.251,1.463-0.251c0.544,0,1.045,0.078,1.497,0.236c0.452,0.157,0.817,0.365,1.093,0.621l-0.838,0.905
		c-0.172-0.193-0.416-0.357-0.727-0.491c-0.312-0.136-0.649-0.203-1.016-0.203c-0.359,0-0.685,0.064-0.977,0.192
		c-0.292,0.13-0.541,0.307-0.746,0.53c-0.205,0.225-0.364,0.488-0.477,0.79c-0.113,0.301-0.169,0.629-0.169,0.982
		c0,0.366,0.056,0.7,0.169,1.006c0.112,0.305,0.272,0.568,0.481,0.794c0.209,0.226,0.462,0.399,0.76,0.524
		c0.299,0.126,0.638,0.188,1.017,0.188c0.52,0,0.973-0.081,1.357-0.241v-1.733h-1.436v-1.001h2.61V71.156z"/>
	<path d="M138.931,64.696h1.05l2.936,6.816h-1.387l-0.635-1.56h-2.956l-0.617,1.56h-1.357L138.931,64.696z M140.471,68.913
		l-1.05-2.772l-1.068,2.772H140.471z"/>
	<polygon points="144.639,64.696 145.853,64.696 145.853,70.435 148.75,70.435 148.75,71.513 144.639,71.513 	"/>
	<path d="M155.808,69.01c0,0.411-0.07,0.781-0.212,1.112c-0.142,0.33-0.334,0.611-0.578,0.842c-0.243,0.231-0.532,0.409-0.866,0.534
		c-0.334,0.126-0.696,0.188-1.088,0.188c-0.391,0-0.755-0.063-1.089-0.188c-0.333-0.125-0.623-0.303-0.871-0.534
		c-0.246-0.23-0.439-0.512-0.577-0.842c-0.138-0.331-0.206-0.701-0.206-1.112v-4.313h1.213v4.266c0,0.199,0.024,0.396,0.077,0.592
		c0.051,0.196,0.136,0.371,0.255,0.524c0.118,0.154,0.275,0.279,0.472,0.375c0.195,0.098,0.438,0.146,0.727,0.146
		c0.289,0,0.531-0.048,0.728-0.146c0.195-0.096,0.352-0.221,0.472-0.375c0.118-0.153,0.204-0.328,0.255-0.524
		c0.051-0.195,0.077-0.393,0.077-0.592v-4.266h1.213V69.01z"/>
	<path d="M158.301,64.696h2.368c0.32,0,0.632,0.034,0.935,0.103c0.302,0.066,0.568,0.177,0.803,0.331
		c0.234,0.153,0.423,0.356,0.564,0.606c0.141,0.25,0.212,0.556,0.212,0.914c0,0.495-0.141,0.897-0.419,1.208
		c-0.28,0.312-0.659,0.522-1.142,0.632l1.819,3.022h-1.463l-1.578-2.889h-0.887v2.889h-1.213V64.696z M160.506,67.633
		c0.173,0,0.347-0.013,0.52-0.039c0.174-0.025,0.329-0.073,0.468-0.144c0.138-0.07,0.252-0.173,0.342-0.303
		c0.089-0.132,0.134-0.301,0.134-0.507c0-0.185-0.041-0.338-0.125-0.457c-0.083-0.118-0.189-0.213-0.317-0.283
		c-0.129-0.07-0.274-0.118-0.438-0.145c-0.164-0.026-0.323-0.039-0.478-0.039h-1.098v1.916H160.506z"/>
	<polygon points="165.561,70.185 166.678,70.185 165.86,72.726 164.886,72.726 	"/>
	<polygon points="172.127,64.696 173.736,64.696 176.904,69.8 176.922,69.8 176.922,64.696 178.135,64.696 178.135,71.513 
		176.595,71.513 173.36,66.247 173.341,66.247 173.341,71.513 172.127,71.513 	"/>
	<path d="M180.359,68.085c0-0.545,0.092-1.038,0.274-1.478c0.184-0.439,0.437-0.813,0.761-1.121
		c0.323-0.308,0.709-0.546,1.155-0.712c0.446-0.168,0.932-0.252,1.459-0.252c0.533,0,1.023,0.084,1.474,0.252
		c0.449,0.166,0.838,0.404,1.165,0.712s0.582,0.682,0.765,1.121s0.273,0.933,0.273,1.478c0,0.533-0.091,1.02-0.273,1.459
		s-0.438,0.818-0.765,1.136c-0.327,0.318-0.716,0.564-1.165,0.742c-0.45,0.176-0.94,0.264-1.474,0.264
		c-0.527,0-1.013-0.088-1.459-0.264c-0.446-0.178-0.832-0.424-1.155-0.742c-0.324-0.317-0.577-0.696-0.761-1.136
		C180.451,69.104,180.359,68.618,180.359,68.085 M181.678,68.085c0,0.367,0.056,0.701,0.169,1.007
		c0.111,0.305,0.272,0.568,0.481,0.794c0.208,0.226,0.455,0.399,0.741,0.524c0.285,0.125,0.602,0.188,0.948,0.188
		s0.664-0.063,0.954-0.188c0.288-0.125,0.536-0.299,0.744-0.524c0.21-0.226,0.37-0.489,0.482-0.794
		c0.112-0.306,0.169-0.64,0.169-1.007c0-0.354-0.057-0.681-0.169-0.981c-0.112-0.302-0.271-0.565-0.477-0.789
		c-0.206-0.225-0.453-0.402-0.742-0.53c-0.288-0.129-0.609-0.192-0.962-0.192c-0.354,0-0.672,0.063-0.958,0.192
		c-0.286,0.128-0.531,0.306-0.736,0.53c-0.206,0.224-0.365,0.487-0.477,0.789C181.734,67.404,181.678,67.731,181.678,68.085"/>
	<path d="M189.911,64.696h2.367c0.321,0,0.632,0.034,0.935,0.103c0.302,0.066,0.569,0.177,0.804,0.331
		c0.234,0.153,0.422,0.356,0.564,0.606c0.14,0.25,0.211,0.556,0.211,0.914c0,0.495-0.14,0.897-0.419,1.208
		c-0.28,0.312-0.659,0.522-1.14,0.632l1.819,3.022h-1.464l-1.579-2.889h-0.886v2.889h-1.213V64.696z M192.115,67.633
		c0.174,0,0.347-0.013,0.521-0.039c0.173-0.025,0.328-0.073,0.467-0.144c0.138-0.07,0.252-0.173,0.342-0.303
		c0.089-0.132,0.135-0.301,0.135-0.507c0-0.185-0.042-0.338-0.125-0.457c-0.084-0.118-0.19-0.213-0.318-0.283
		c-0.129-0.07-0.274-0.118-0.438-0.145c-0.164-0.026-0.322-0.039-0.478-0.039h-1.097v1.916H192.115z"/>
	<polygon points="198.277,65.756 196.187,65.756 196.187,64.696 201.579,64.696 201.579,65.756 199.491,65.756 199.491,71.513 
		198.277,71.513 	"/>
	<polygon points="203.418,64.696 204.63,64.696 204.63,67.45 207.818,67.45 207.818,64.696 209.032,64.696 209.032,71.513 
		207.818,71.513 207.818,68.49 204.63,68.49 204.63,71.513 203.418,71.513 	"/>
	<path d="M215.04,64.696h2.657c0.255,0,0.511,0.031,0.76,0.091c0.25,0.063,0.474,0.161,0.669,0.3
		c0.196,0.137,0.355,0.315,0.477,0.533c0.122,0.219,0.184,0.481,0.184,0.79c0,0.385-0.109,0.703-0.328,0.953
		c-0.218,0.251-0.504,0.43-0.855,0.539v0.02c0.43,0.058,0.783,0.225,1.059,0.5c0.275,0.276,0.414,0.646,0.414,1.108
		c0,0.371-0.075,0.685-0.223,0.938c-0.146,0.253-0.341,0.457-0.581,0.61c-0.241,0.154-0.518,0.266-0.828,0.333
		c-0.312,0.066-0.628,0.101-0.948,0.101h-2.455V64.696z M216.251,67.47h1.08c0.403,0,0.712-0.081,0.923-0.241
		s0.317-0.389,0.317-0.683c0-0.309-0.109-0.527-0.327-0.655c-0.219-0.128-0.559-0.193-1.021-0.193h-0.973V67.47z M216.251,70.492
		h1.088c0.155,0,0.321-0.012,0.502-0.033c0.179-0.022,0.345-0.069,0.495-0.141c0.15-0.07,0.275-0.172,0.376-0.308
		c0.099-0.134,0.148-0.314,0.148-0.538c0-0.36-0.122-0.611-0.365-0.751c-0.244-0.142-0.613-0.213-1.108-0.213h-1.136V70.492z"/>
	<polygon points="222.318,64.696 226.833,64.696 226.833,65.756 223.53,65.756 223.53,67.488 226.66,67.488 226.66,68.509 
		223.53,68.509 223.53,70.435 227.005,70.435 227.005,71.513 222.318,71.513 	"/>
	<polygon points="229.24,64.696 230.848,64.696 234.016,69.8 234.035,69.8 234.035,64.696 235.248,64.696 235.248,71.513 
		233.708,71.513 230.472,66.247 230.454,66.247 230.454,71.513 229.24,71.513 	"/>
	<path d="M243.768,71.156c-0.346,0.167-0.727,0.298-1.141,0.391s-0.891,0.14-1.431,0.14c-0.552,0-1.055-0.089-1.512-0.265
		c-0.455-0.178-0.846-0.424-1.173-0.742c-0.328-0.317-0.583-0.695-0.767-1.136c-0.183-0.439-0.274-0.926-0.274-1.458
		c0-0.546,0.096-1.039,0.284-1.479c0.189-0.44,0.45-0.813,0.78-1.121c0.33-0.309,0.72-0.546,1.17-0.713
		c0.449-0.167,0.937-0.251,1.464-0.251c0.544,0,1.044,0.078,1.497,0.236c0.452,0.157,0.816,0.365,1.093,0.621l-0.838,0.905
		c-0.173-0.193-0.417-0.357-0.728-0.491c-0.311-0.136-0.649-0.203-1.016-0.203c-0.359,0-0.685,0.064-0.978,0.192
		c-0.292,0.13-0.541,0.307-0.746,0.53c-0.205,0.225-0.364,0.488-0.477,0.79c-0.112,0.301-0.169,0.629-0.169,0.982
		c0,0.366,0.057,0.7,0.169,1.006c0.112,0.305,0.272,0.568,0.481,0.794s0.462,0.399,0.761,0.524c0.299,0.126,0.638,0.188,1.016,0.188
		c0.521,0,0.974-0.081,1.358-0.241v-1.733h-1.436v-1.001h2.609V71.156z"/>
	<path d="M248.428,64.696h1.05l2.936,6.816h-1.386l-0.636-1.56h-2.956l-0.616,1.56h-1.356L248.428,64.696z M249.968,68.913
		l-1.049-2.772l-1.068,2.772H249.968z"/>
	<polygon points="254.137,64.696 255.351,64.696 255.351,70.435 258.249,70.435 258.249,71.513 254.137,71.513 	"/>
	<path d="M265.306,69.01c0,0.411-0.07,0.781-0.213,1.112c-0.141,0.33-0.333,0.611-0.577,0.842c-0.244,0.231-0.533,0.409-0.866,0.534
		c-0.334,0.126-0.696,0.188-1.089,0.188c-0.391,0-0.754-0.063-1.088-0.188c-0.333-0.125-0.623-0.303-0.871-0.534
		c-0.247-0.23-0.439-0.512-0.577-0.842c-0.139-0.331-0.207-0.701-0.207-1.112v-4.313h1.213v4.266c0,0.199,0.025,0.396,0.076,0.592
		c0.053,0.196,0.138,0.371,0.256,0.524c0.119,0.154,0.276,0.279,0.472,0.375c0.196,0.098,0.438,0.146,0.727,0.146
		c0.289,0,0.532-0.048,0.729-0.146c0.195-0.096,0.352-0.221,0.471-0.375c0.118-0.153,0.204-0.328,0.256-0.524
		c0.051-0.195,0.076-0.393,0.076-0.592v-4.266h1.214V69.01z"/>
	<path d="M267.799,64.696h2.368c0.32,0,0.632,0.034,0.934,0.103c0.302,0.066,0.569,0.177,0.804,0.331
		c0.234,0.153,0.423,0.356,0.563,0.606s0.212,0.556,0.212,0.914c0,0.495-0.14,0.897-0.418,1.208c-0.28,0.312-0.66,0.522-1.142,0.632
		l1.819,3.022h-1.463l-1.58-2.889h-0.885v2.889h-1.213V64.696z M270.004,67.633c0.172,0,0.347-0.013,0.52-0.039
		c0.173-0.025,0.328-0.073,0.467-0.144c0.138-0.07,0.252-0.173,0.343-0.303c0.089-0.132,0.134-0.301,0.134-0.507
		c0-0.185-0.042-0.338-0.125-0.457c-0.083-0.118-0.189-0.213-0.318-0.283c-0.128-0.07-0.273-0.118-0.437-0.145
		c-0.164-0.026-0.324-0.039-0.478-0.039h-1.098v1.916H270.004z"/>
	<path d="M280.334,69.01c0,0.411-0.07,0.781-0.211,1.112c-0.143,0.33-0.335,0.611-0.579,0.842c-0.243,0.231-0.531,0.409-0.866,0.534
		c-0.333,0.126-0.696,0.188-1.087,0.188c-0.392,0-0.755-0.063-1.089-0.188c-0.333-0.125-0.624-0.303-0.872-0.534
		c-0.246-0.23-0.438-0.512-0.577-0.842c-0.138-0.331-0.207-0.701-0.207-1.112v-4.313h1.214v4.266c0,0.199,0.025,0.396,0.077,0.592
		c0.051,0.196,0.136,0.371,0.255,0.524c0.118,0.154,0.275,0.279,0.472,0.375c0.195,0.098,0.438,0.146,0.728,0.146
		c0.288,0,0.531-0.048,0.727-0.146c0.195-0.096,0.353-0.221,0.472-0.375c0.118-0.153,0.204-0.328,0.255-0.524
		c0.052-0.195,0.077-0.393,0.077-0.592v-4.266h1.213V69.01z"/>
</g>
</svg>
